<?xml version="1.0" standalone="no"?>
<!DOCTYPE svg PUBLIC "-//W3C//DTD SVG 20010904//EN"
 "http://www.w3.org/TR/2001/REC-SVG-20010904/DTD/svg10.dtd">
<svg version="1.0" xmlns="http://www.w3.org/2000/svg"
 width="572.000000pt" height="572.000000pt" viewBox="0 0 572.000000 572.000000"
 preserveAspectRatio="xMidYMid meet">
<metadata>
Created by potrace 1.14, written by Peter Selinger 2001-2017
</metadata>
<g transform="translate(0.000000,572.000000) scale(0.100000,-0.100000)"
fill="#000000" stroke="none">
<path d="M1901 5643 c-51 -29 -98 -53 -102 -53 -5 0 -9 -3 -9 -8 0 -4 -21 -18
-47 -31 -27 -14 -59 -32 -73 -42 -29 -19 -114 -67 -147 -83 -13 -6 -23 -14
-23 -18 0 -5 -5 -8 -11 -8 -6 0 -39 -17 -73 -37 -33 -21 -74 -45 -91 -53 -16
-9 -46 -25 -65 -37 -129 -74 -301 -174 -330 -192 -19 -11 -42 -24 -50 -28 -8
-4 -43 -24 -78 -45 -34 -21 -64 -38 -67 -38 -2 0 -45 -25 -95 -55 -50 -30 -92
-55 -94 -55 -2 0 -33 -17 -67 -38 -35 -22 -91 -54 -124 -72 -33 -18 -66 -38
-73 -45 -11 -10 -14 -186 -13 -991 0 -539 0 -988 1 -999 0 -11 10 -25 23 -31
12 -6 66 -36 119 -67 54 -31 102 -57 108 -57 5 0 10 -4 10 -9 0 -5 8 -11 17
-14 10 -4 41 -20 68 -36 28 -17 84 -50 125 -73 41 -23 77 -44 80 -47 3 -4 16
-12 30 -18 28 -14 74 -40 168 -96 35 -20 67 -37 73 -37 5 0 9 -3 9 -8 0 -4 15
-13 33 -21 17 -8 34 -17 37 -20 3 -4 92 -56 198 -116 105 -60 192 -113 192
-117 0 -4 -24 -32 -52 -61 -29 -30 -159 -163 -288 -297 -129 -133 -303 -313
-387 -399 -83 -86 -146 -157 -139 -159 7 -1 95 18 196 44 102 25 193 48 202
50 25 6 30 7 253 64 110 28 211 53 225 56 14 3 52 12 85 21 33 8 67 17 75 18
8 2 15 4 15 5 0 1 9 3 20 6 11 2 72 17 135 33 63 15 116 27 118 26 1 -1 12
-35 23 -76 11 -41 29 -103 39 -139 11 -36 22 -74 25 -85 2 -11 13 -51 25 -90
12 -38 23 -77 25 -85 2 -8 8 -27 14 -42 6 -16 8 -28 6 -28 -3 0 1 -16 9 -35 8
-19 13 -35 10 -35 -3 0 0 -8 5 -18 6 -11 12 -32 15 -47 3 -16 17 -67 31 -114
34 -115 38 -127 100 -346 29 -104 56 -183 59 -175 3 8 40 134 82 280 41 146
94 328 116 405 22 76 40 147 41 157 1 10 4 18 7 18 4 0 33 -21 66 -46 32 -25
84 -62 114 -81 30 -20 66 -43 80 -52 43 -29 182 -97 250 -123 36 -14 74 -29
85 -33 11 -5 22 -9 25 -9 3 -1 11 -5 18 -9 6 -5 12 -6 12 -3 0 3 18 -1 39 -9
53 -18 218 -52 311 -64 73 -9 390 -7 440 2 14 3 43 8 65 11 61 9 96 16 140 28
22 5 47 11 55 13 57 12 224 75 320 122 451 219 803 619 954 1083 25 77 45 150
52 185 2 11 6 31 9 45 3 14 8 41 10 60 3 19 8 58 12 85 10 66 10 354 1 430
-14 107 -19 139 -39 220 -25 98 -77 255 -91 273 -6 6 -8 12 -5 12 6 0 -73 160
-111 225 -23 40 -94 147 -107 161 -5 7 -19 24 -30 39 -59 81 -194 219 -295
300 -85 68 -167 125 -180 125 -5 0 -10 5 -10 10 0 6 -6 10 -14 10 -8 0 -16 4
-18 9 -6 15 -250 128 -348 161 -143 47 -200 61 -303 76 -17 3 -43 7 -57 10
-14 2 -101 7 -195 9 l-170 6 -2 197 c-1 108 -2 226 -2 262 l-2 65 -112 62
c-169 95 -192 108 -197 114 -3 3 -45 28 -95 56 -49 27 -178 101 -285 163 -107
62 -215 124 -240 138 -25 13 -49 28 -55 32 -9 6 -33 20 -135 77 -14 8 -38 23
-55 33 -16 10 -52 31 -80 46 -27 14 -62 35 -77 45 -14 11 -29 19 -32 19 -3 0
-35 18 -71 40 -36 22 -70 40 -75 40 -6 0 -10 5 -10 10 0 6 -5 10 -11 10 -6 0
-47 22 -92 48 -45 27 -89 51 -97 54 -8 2 -57 -19 -109 -49z m2130 -1954 c113
-16 136 -21 199 -40 36 -12 72 -22 80 -24 43 -9 230 -96 230 -107 0 -4 5 -8
12 -8 13 0 142 -86 190 -127 176 -151 316 -344 399 -548 7 -16 13 -32 14 -35
5 -19 39 -128 43 -140 7 -20 11 -39 16 -75 2 -16 7 -42 11 -56 3 -14 8 -54 10
-90 2 -35 5 -66 6 -69 1 -3 1 -8 0 -12 0 -3 -3 -53 -5 -110 -3 -56 -8 -114
-11 -128 -3 -14 -7 -39 -10 -57 -15 -113 -87 -308 -158 -428 -83 -140 -224
-308 -326 -385 -18 -14 -39 -31 -46 -37 -8 -7 -16 -13 -20 -13 -3 0 -15 -8
-26 -18 -10 -11 -32 -25 -47 -33 -15 -8 -29 -16 -32 -19 -20 -21 -263 -126
-315 -136 -5 -1 -28 -7 -50 -12 -48 -13 -91 -21 -170 -32 -63 -9 -332 -6 -375
4 -14 4 -41 9 -60 12 -55 9 -198 53 -249 75 -25 12 -62 28 -81 37 -90 41 -269
162 -337 228 -20 19 -15 24 10 15 13 -5 37 -12 53 -14 16 -3 44 -10 62 -16 17
-5 32 -8 32 -5 0 3 8 0 18 -5 9 -5 31 -11 47 -14 17 -3 75 -17 130 -32 55 -14
109 -28 120 -30 11 -2 20 -4 20 -5 0 -1 7 -3 15 -5 8 -1 42 -10 75 -18 33 -9
71 -18 85 -21 14 -3 61 -14 105 -26 44 -12 89 -24 100 -26 11 -2 89 -21 173
-43 83 -21 152 -36 152 -33 0 3 -33 39 -74 81 -41 42 -112 115 -158 162 -136
142 -505 523 -619 640 l-105 108 99 103 c54 57 199 206 321 332 121 125 259
268 306 316 47 49 118 122 158 163 64 66 89 98 64 83 -5 -3 -19 -7 -33 -10
-27 -5 -305 -74 -331 -82 -15 -4 -16 25 -16 378 0 211 2 386 5 390 5 9 224 7
294 -3z"/>
<path d="M283 1986 c-37 -58 -123 -205 -123 -212 0 -4 -6 -15 -14 -23 -7 -9
-28 -43 -45 -76 -18 -33 -37 -64 -42 -69 -5 -6 -9 -16 -9 -23 0 -10 52 -13
250 -13 138 0 250 4 250 9 0 5 -36 70 -80 146 -44 76 -80 140 -80 142 0 3 -8
17 -19 31 -10 15 -29 48 -43 73 l-24 47 -21 -32z"/>
<path d="M1090 731 c0 -5 -23 -49 -52 -98 -28 -48 -61 -105 -72 -125 -12 -20
-42 -74 -68 -119 -27 -46 -48 -86 -48 -91 0 -4 113 -8 250 -8 138 0 250 4 250
9 0 4 -29 58 -64 119 -36 61 -76 131 -89 154 -52 93 -98 168 -102 168 -3 0 -5
-4 -5 -9z"/>
</g>
</svg>
